<svg width="17" height="16" viewBox="0 0 17 16" fill="none" xmlns="http://www.w3.org/2000/svg">
<path d="M16.2364 0.495317C15.9979 0.295376 15.7181 0.150565 15.4172 0.0712212C15.1162 -0.00812222 14.8014 -0.0200405 14.4953 0.0363171L10.1178 0.831776C9.49142 0.944721 8.92141 1.26566 8.5 1.74269C8.0789 1.26487 7.50886 0.943165 6.88216 0.829651L2.50467 0.0341921C2.1985 -0.0214038 1.88386 -0.00908201 1.58299 0.0702868C1.28211 0.149656 1.00233 0.294134 0.763428 0.493514C0.524525 0.692893 0.332323 0.942307 0.200406 1.22413C0.0684891 1.50596 7.56112e-05 1.81331 0 2.12448L0 14.0486L8.5 15.5949L17 14.0486V2.12448C17 1.81354 16.9316 1.5064 16.7997 1.22485C16.6677 0.943295 16.4754 0.694229 16.2364 0.495317ZM7.79166 14.0245L1.41667 12.8671V2.12448C1.41675 2.02078 1.43961 1.91835 1.48363 1.82445C1.52765 1.73055 1.59175 1.64745 1.6714 1.58104C1.75105 1.51463 1.84432 1.46652 1.94461 1.44011C2.04489 1.4137 2.14976 1.40963 2.25179 1.42819L6.62858 2.22365C6.955 2.28304 7.25022 2.45511 7.46277 2.70986C7.67532 2.96461 7.79171 3.28588 7.79166 3.61765V14.0245ZM15.5833 12.8657L9.20833 14.0245V3.61765C9.20828 3.28588 9.32468 2.96461 9.53723 2.70986C9.74978 2.45511 10.045 2.28304 10.3714 2.22365L14.7482 1.42819C14.8502 1.40963 14.9551 1.4137 15.0554 1.44011C15.1557 1.46652 15.2489 1.51463 15.3286 1.58104C15.4082 1.64745 15.4723 1.73055 15.5164 1.82445C15.5604 1.91835 15.5832 2.02078 15.5833 2.12448V12.8657Z" fill="#1252F7" fill-opacity="0.7"/>
</svg>
