<svg width="15" height="15" viewBox="0 0 15 15" fill="none" xmlns="http://www.w3.org/2000/svg">
<g clip-path="url(#clip0_720_368)">
<path d="M7.03292 4.44711L5.57984 5.9002C5.04449 6.43554 4.50609 6.97089 3.9738 7.51235C3.84838 7.64083 3.75354 7.81214 3.71683 7.9804C3.52411 8.86448 3.3375 9.74857 3.1509 10.6327L3.04689 11.1221C2.99794 11.3607 3.06218 11.5993 3.22431 11.7615C3.34974 11.8869 3.52411 11.9573 3.70766 11.9573C3.75966 11.9573 3.81167 11.9511 3.86367 11.942L4.40208 11.8288C5.25863 11.6483 6.11824 11.4647 6.9748 11.2873C7.17364 11.2445 7.34189 11.1558 7.48567 11.012C9.89014 8.60446 12.2946 6.19999 14.6991 3.79858C14.8765 3.62115 14.9744 3.41007 14.9989 3.15005C15.0019 3.10722 14.9989 3.06439 14.9897 3.02462C14.9744 2.96344 14.9622 2.8992 14.9469 2.83802C14.9132 2.682 14.8765 2.50457 14.8031 2.33326C14.3534 1.3054 13.607 0.571207 12.5852 0.158225C12.3803 0.0756292 12.1631 0.0480971 11.9734 0.0236242L11.9214 0.0175059C11.6461 -0.0161444 11.3952 0.0756292 11.178 0.295886C9.80142 1.67861 8.41564 3.06439 7.03292 4.44711ZM11.8204 0.754754C11.8266 0.754754 11.8296 0.754754 11.8357 0.754754L11.8877 0.760872C12.0468 0.779227 12.1937 0.797582 12.3099 0.846528C13.142 1.18303 13.7538 1.78262 14.124 2.62694C14.1668 2.72483 14.1943 2.85025 14.2219 2.98179C14.231 3.03074 14.2433 3.07969 14.2524 3.12863C14.2402 3.1837 14.2188 3.22041 14.176 3.26017C11.7684 5.66158 9.36397 8.06911 6.9595 10.4736C6.91973 10.5133 6.88302 10.5317 6.82796 10.5439C5.96835 10.7244 5.11179 10.9049 4.25218 11.0854L3.79943 11.1802L3.88508 10.7795C4.07169 9.89847 4.2583 9.01438 4.44796 8.13335C4.45408 8.10582 4.47855 8.06299 4.50609 8.0324C5.03837 7.494 5.57066 6.95865 6.10601 6.42636L7.55909 4.97328C8.94487 3.5875 10.3307 2.20172 11.7134 0.812877C11.7715 0.763931 11.799 0.754754 11.8204 0.754754Z" fill="#9F999A"/>
<path d="M1.19 3.34581H6.53122C6.73924 3.34581 6.90749 3.17755 6.90749 2.96953C6.90749 2.76151 6.73924 2.59326 6.53122 2.59326H1.19C0.532287 2.59326 0 3.12861 0 3.78326V13.7988C0 14.4565 0.535346 14.9888 1.19 14.9888H11.2025C11.8602 14.9888 12.3925 14.4535 12.3925 13.7988V8.67479C12.3925 8.46677 12.2242 8.29852 12.0162 8.29852C11.8082 8.29852 11.64 8.46677 11.64 8.67479V13.7988C11.64 14.0405 11.4411 14.2393 11.1994 14.2393H1.19C0.948327 14.2393 0.749485 14.0405 0.749485 13.7988V3.78632C0.749485 3.54465 0.948327 3.34581 1.19 3.34581Z" fill="#9F999A"/>
</g>
<defs>
<clipPath id="clip0_720_368">
<rect width="15" height="15" fill="white"/>
</clipPath>
</defs>
</svg>
