<svg width="20" height="20" viewBox="0 0 20 20" fill="none" xmlns="http://www.w3.org/2000/svg">
<g clip-path="url(#clip0_52_13962)">
<path d="M5.3177 13.8143C4.74871 13.8143 4.28577 14.2772 4.28577 14.8462C4.28577 15.4152 4.74871 15.8781 5.3177 15.8781C5.88669 15.8781 6.34964 15.4152 6.34964 14.8462C6.34964 14.2772 5.88669 13.8143 5.3177 13.8143ZM5.3177 15.141C5.1551 15.141 5.02286 15.0088 5.02286 14.8462C5.02286 14.6837 5.1551 14.5514 5.3177 14.5514C5.48031 14.5514 5.61254 14.6837 5.61254 14.8462C5.61254 15.0088 5.48026 15.141 5.3177 15.141Z" fill="white"/>
<path d="M14.6824 13.8143C14.1135 13.8143 13.6505 14.2772 13.6505 14.8462C13.6505 15.4152 14.1135 15.8781 14.6824 15.8781C15.2514 15.8781 15.7144 15.4152 15.7144 14.8462C15.7144 14.2772 15.2514 13.8143 14.6824 13.8143ZM14.6824 15.141C14.5198 15.141 14.3876 15.0088 14.3876 14.8462C14.3876 14.6837 14.5198 14.5514 14.6824 14.5514C14.8451 14.5514 14.9773 14.6837 14.9773 14.8462C14.9773 15.0088 14.8451 15.141 14.6824 15.141Z" fill="white"/>
<path d="M14.9781 4.86482H12.64L11.9387 3.68055C11.8723 3.56851 11.7517 3.49982 11.6216 3.49982H8.37847C8.24825 3.49982 8.12766 3.56851 8.06137 3.68055L7.3601 4.86482H5.02198C3.90935 4.86482 3.00415 5.77003 3.00415 6.88265V14.6841C3.00415 15.6178 3.54449 16.4272 4.32866 16.8173L3.07132 19.4737C2.9843 19.6577 3.06282 19.8774 3.24675 19.9645C3.29771 19.9886 3.35137 20 3.4042 20C3.54223 20 3.67456 19.9221 3.73756 19.7891L5.03878 17.04C5.13603 17.0542 5.2352 17.0622 5.33583 17.0643L4.42006 19.5018C4.34847 19.6924 4.44488 19.9048 4.63544 19.9764C4.67815 19.9925 4.72193 20.0001 4.76503 20.0001C4.91412 20.0001 5.05456 19.9089 5.11004 19.7611L5.5519 18.5849H14.448L14.8899 19.7611C14.9454 19.9089 15.0858 20.0001 15.2349 20.0001C15.278 20.0001 15.3218 19.9925 15.3645 19.9764C15.555 19.9048 15.6515 19.6924 15.5799 19.5018L14.6641 17.0643C14.7648 17.0622 14.8639 17.0542 14.9612 17.04L16.2625 19.7891C16.3255 19.9221 16.4578 20 16.5958 20C16.6487 20 16.7024 19.9886 16.7533 19.9645C16.9373 19.8774 17.0158 19.6577 16.9287 19.4737L15.6713 16.8173C16.4555 16.4273 16.9958 15.6178 16.9958 14.6842V6.88265C16.9959 5.77003 16.0907 4.86482 14.9781 4.86482ZM8.58855 4.23691H11.4114L11.7833 4.86482H8.2167L8.58855 4.23691ZM5.82885 17.8477L6.12276 17.0655H13.8773L14.1712 17.8477H5.82885ZM16.2588 14.6841C16.2588 15.5908 15.5212 16.3284 14.6146 16.3284H5.38551C4.47889 16.3284 3.7413 15.5908 3.7413 14.6841V6.88265C3.7413 6.17646 4.31579 5.60192 5.02203 5.60192H14.9781C15.6843 5.60192 16.2588 6.17646 16.2588 6.88265V14.6841H16.2588Z" fill="white"/>
<path d="M14.9781 5.94592H5.02196C4.50545 5.94592 4.08521 6.36612 4.08521 6.88268V12.0638C4.08521 12.7808 4.66849 13.3641 5.38544 13.3641H14.6145C15.3315 13.3641 15.9148 12.7808 15.9148 12.0638V6.88268C15.9148 6.36612 15.4945 5.94592 14.9781 5.94592ZM15.1777 12.0638C15.1777 12.3743 14.9251 12.627 14.6145 12.627H5.38549C5.07498 12.627 4.82235 12.3743 4.82235 12.0638V8.40291H13.6199C13.8235 8.40291 13.9885 8.2379 13.9885 8.03436C13.9885 7.83083 13.8235 7.66582 13.6199 7.66582H4.82235V6.88263C4.82235 6.77255 4.91188 6.68297 5.02201 6.68297H14.9781C15.0881 6.68297 15.1777 6.77255 15.1777 6.88263V12.0638H15.1777Z" fill="white"/>
<path d="M10.0001 0C4.93315 0 0.810913 4.12224 0.810913 9.18914V19.6314C0.810913 19.8349 0.975875 19.9999 1.17946 19.9999C1.38305 19.9999 1.54801 19.8349 1.54801 19.6314V9.18914C1.54801 4.52868 5.33959 0.737097 10.0001 0.737097C14.6605 0.737097 18.4521 4.52868 18.4521 9.18914V19.6314C18.4521 19.8349 18.6171 19.9999 18.8207 19.9999C19.0242 19.9999 19.1892 19.8349 19.1892 19.6314V9.18914C19.1892 4.12224 15.067 0 10.0001 0Z" fill="white"/>
<path d="M14.9004 7.89326C14.8395 7.74864 14.6913 7.65562 14.5343 7.66716C14.3797 7.67852 14.2469 7.78682 14.2052 7.93625C14.1165 8.25375 14.4785 8.5222 14.7572 8.34574C14.9071 8.25075 14.9683 8.05733 14.9004 7.89326C14.9097 7.91586 14.8911 7.87114 14.9004 7.89326Z" fill="white"/>
</g>
<defs>
<clipPath id="clip0_52_13962">
<rect width="20" height="20" fill="white"/>
</clipPath>
</defs>
</svg>
