<svg width="21" height="21" viewBox="0 0 21 21" fill="none" xmlns="http://www.w3.org/2000/svg">
<path d="M3.54021 0.253691C3.00744 0.377382 2.49168 0.812082 2.2359 1.34485L2.07819 1.67728L2.06538 10.3734C2.05677 16.1963 2.06958 19.1375 2.0994 19.274C2.21868 19.8366 2.64078 20.3526 3.19917 20.6168L3.5274 20.7745L10.3692 20.7873C14.9346 20.7959 17.279 20.7831 17.4155 20.7533C18.1018 20.6084 18.7327 19.9859 18.8906 19.2996C18.9204 19.176 18.9374 17.0957 18.9374 13.3999C18.9374 7.90525 18.9332 7.67929 18.8563 7.51738C18.7541 7.30423 11.7718 0.317532 11.5927 0.249491C11.4433 0.194052 3.77478 0.198252 3.54021 0.253691ZM10.1987 4.24789C10.1987 7.2574 10.2029 7.29583 10.4416 7.70932C10.6292 8.02894 10.9744 8.33596 11.3369 8.51068L11.6693 8.66839L14.666 8.6812L17.6585 8.69401V13.9329C17.6585 17.9059 17.6457 19.1974 17.6073 19.2826C17.4964 19.5298 17.9185 19.517 10.4971 19.517C3.07569 19.517 3.49758 19.5298 3.38691 19.2826C3.30585 19.1121 3.31446 1.84801 3.39552 1.70311C3.51921 1.48135 3.42114 1.48996 6.9294 1.48576H10.1989V4.24789H10.1987ZM14.4188 7.4023C11.5798 7.41091 11.6097 7.41511 11.5202 7.17214C11.4946 7.10809 11.4776 6.01273 11.4776 4.45684V1.84801L14.2483 4.61875L17.0191 7.38949L14.4188 7.4023Z" fill="white"/>
<path d="M6.27698 11.4179V12.0574H10.4971H14.7173V11.4179V10.7785H10.4971H6.27698V11.4179Z" fill="white"/>
<path d="M6.27698 14.1887V14.8281H10.4971H14.7173V14.1887V13.5492H10.4971H6.27698V14.1887Z" fill="white"/>
<path d="M6.27698 16.8742V17.5136H8.28059H10.284V16.8742V16.2347H8.28059H6.27698V16.8742Z" fill="white"/>
</svg>
