<svg width="25" height="25" viewBox="0 0 25 25" fill="none" xmlns="http://www.w3.org/2000/svg">
<g clip-path="url(#clip0_54_186)">
<path d="M16.6667 12.5C16.6675 13.2625 16.3888 13.9989 15.8834 14.5698C15.5803 14.9104 15.2855 15.2333 15.074 15.4448L12.1324 18.4375C11.9363 18.6217 11.6766 18.7229 11.4077 18.7199C11.1387 18.7169 10.8813 18.6101 10.6894 18.4216C10.4974 18.2332 10.3858 17.9778 10.3779 17.7089C10.37 17.4401 10.4664 17.1786 10.647 16.9792L13.5938 13.9792C13.7886 13.7833 14.0532 13.4917 14.323 13.1885C14.4908 12.9982 14.5835 12.7532 14.5835 12.4995C14.5835 12.2457 14.4908 12.0007 14.323 11.8104C14.0542 11.5083 13.7897 11.2167 13.6011 11.0271L10.647 8.02082C10.4664 7.82143 10.37 7.55992 10.3779 7.29106C10.3858 7.02219 10.4974 6.7668 10.6894 6.57836C10.8813 6.38992 11.1387 6.28303 11.4077 6.28007C11.6766 6.27711 11.9363 6.37831 12.1324 6.56249L15.0792 9.56041C15.2876 9.76874 15.5792 10.0885 15.8803 10.4281C16.3876 10.999 16.6675 11.7363 16.6667 12.5Z" fill="white"/>
<path d="M0.000117441 12.5001C0.000117225 14.9724 0.733231 17.3891 2.10675 19.4447C3.48026 21.5004 5.4325 23.1025 7.71657 24.0486C10.0007 24.9947 12.514 25.2422 14.9387 24.7599C17.3635 24.2776 19.5908 23.0871 21.339 21.339C23.0871 19.5908 24.2776 17.3635 24.7599 14.9387C25.2422 12.514 24.9947 10.0007 24.0486 7.71657C23.1025 5.4325 21.5004 3.48026 19.4447 2.10675C17.3891 0.73323 14.9724 0.000115472 12.5001 0.000115255C9.18601 0.00370078 6.00867 1.32181 3.66524 3.66524C1.32181 6.00867 0.00370355 9.18601 0.000117441 12.5001ZM22.9168 12.5001C22.9168 14.5603 22.3059 16.5743 21.1613 18.2873C20.0167 20.0003 18.3898 21.3354 16.4864 22.1239C14.583 22.9123 12.4886 23.1186 10.4679 22.7166C8.44729 22.3147 6.59122 21.3226 5.13442 19.8658C3.67762 18.409 2.68553 16.5529 2.2836 14.5323C1.88167 12.5117 2.08796 10.4172 2.87637 8.51383C3.66479 6.61043 4.99992 4.98357 6.71293 3.83897C8.42594 2.69438 10.4399 2.08345 12.5001 2.08345C15.2619 2.08648 17.9096 3.18492 19.8625 5.13777C21.8153 7.09062 22.9138 9.73838 22.9168 12.5001Z" fill="white"/>
</g>
<defs>
<clipPath id="clip0_54_186">
<rect width="25" height="25" fill="white" transform="translate(25 25) rotate(-180)"/>
</clipPath>
</defs>
</svg>
